<svg width="32" height="32" viewBox="0 0 1000 1000" fill="none" xmlns="http://www.w3.org/2000/svg">
  <path d="M500 0C500 0 800 200 800 500C800 800 500 1000 500 1000C500 1000 200 800 200 500C200 200 500 0 500 0Z" fill="#3B4999"/>
  <path d="M500 200C500 200 650 300 650 500C650 700 500 800 500 800C500 800 350 700 350 500C350 300 500 200 500 200Z" fill="#FFD700"/>
  <path d="M500 400C500 400 550 450 550 500C550 550 500 600 500 600C500 600 450 550 450 500C450 450 500 400 500 400Z" fill="#FFA500"/>
  <path d="M200 700C200 700 400 800 500 800C600 800 800 700 800 700C800 700 700 900 500 900C300 900 200 700 200 700Z" fill="#E91E63"/>
  <path d="M300 800C300 800 400 850 500 850C600 850 700 800 700 800C700 800 600 900 500 900C400 900 300 800 300 800Z" fill="#2E7D32"/>
</svg> 