<?xml version="1.0" encoding="UTF-8"?>
<!DOCTYPE svg PUBLIC "-//W3C//DTD SVG 1.1//EN" "http://www.w3.org/Graphics/SVG/1.1/DTD/svg11.dtd">
<svg xmlns="http://www.w3.org/2000/svg" version="1.1" width="151px" height="102px" style="shape-rendering:geometricPrecision; text-rendering:geometricPrecision; image-rendering:optimizeQuality; fill-rule:evenodd; clip-rule:evenodd" xmlns:xlink="http://www.w3.org/1999/xlink">
<g><path style="opacity:1" fill="#2f669f" d="M -0.5,-0.5 C 49.8333,-0.5 100.167,-0.5 150.5,-0.5C 150.5,4.5 150.5,9.5 150.5,14.5C 145.643,16.7586 140.643,18.7586 135.5,20.5C 135.671,18.0072 134.671,16.1739 132.5,15C 115.157,14.167 97.8237,14.3337 80.5,15.5C 80.1924,16.3081 79.6924,16.9747 79,17.5C 78.5002,28.1615 78.3335,38.8281 78.5,49.5C 76.5,50.1667 74.5,50.8333 72.5,51.5C 72.6665,40.495 72.4998,29.495 72,18.5C 71.6258,17.5838 71.1258,16.7504 70.5,16C 52.9243,14.3613 35.2576,14.028 17.5,15C 16.2986,15.9025 15.4652,17.0692 15,18.5C 14.3333,34.8333 14.3333,51.1667 15,67.5C 15.4652,68.9308 16.2986,70.0975 17.5,71C 22.1548,71.4992 26.8215,71.6658 31.5,71.5C 20.8721,76.8139 10.2054,82.1473 -0.5,87.5C -0.5,58.1667 -0.5,28.8333 -0.5,-0.5 Z"/></g>
<g><path style="opacity:1" fill="#f7faf9" d="M 72.5,51.5 C 72.666,56.8437 72.4994,62.1771 72,67.5C 71.5,69.3333 70.3333,70.5 68.5,71C 56.1712,71.4999 43.8378,71.6665 31.5,71.5C 26.8215,71.6658 22.1548,71.4992 17.5,71C 16.2986,70.0975 15.4652,68.9308 15,67.5C 14.3333,51.1667 14.3333,34.8333 15,18.5C 15.4652,17.0692 16.2986,15.9025 17.5,15C 35.2576,14.028 52.9243,14.3613 70.5,16C 71.1258,16.7504 71.6258,17.5838 72,18.5C 72.4998,29.495 72.6665,40.495 72.5,51.5 Z"/></g>
<g><path style="opacity:1" fill="#f8faf9" d="M 135.5,20.5 C 135.667,36.5035 135.5,52.5035 135,68.5C 134.167,69.3333 133.333,70.1667 132.5,71C 115.5,71.6667 98.5,71.6667 81.5,71C 80.6667,70.1667 79.8333,69.3333 79,68.5C 78.5005,62.1754 78.3338,55.8421 78.5,49.5C 78.3335,38.8281 78.5002,28.1615 79,17.5C 79.6924,16.9747 80.1924,16.3081 80.5,15.5C 97.8237,14.3337 115.157,14.167 132.5,15C 134.671,16.1739 135.671,18.0072 135.5,20.5 Z"/></g>
<g><path style="opacity:1" fill="#183e64" d="M 150.5,14.5 C 150.5,43.5 150.5,72.5 150.5,101.5C 100.167,101.5 49.8333,101.5 -0.5,101.5C -0.5,96.8333 -0.5,92.1667 -0.5,87.5C 10.2054,82.1473 20.8721,76.8139 31.5,71.5C 43.8378,71.6665 56.1712,71.4999 68.5,71C 70.3333,70.5 71.5,69.3333 72,67.5C 72.4994,62.1771 72.666,56.8437 72.5,51.5C 74.5,50.8333 76.5,50.1667 78.5,49.5C 78.3338,55.8421 78.5005,62.1754 79,68.5C 79.8333,69.3333 80.6667,70.1667 81.5,71C 98.5,71.6667 115.5,71.6667 132.5,71C 133.333,70.1667 134.167,69.3333 135,68.5C 135.5,52.5035 135.667,36.5035 135.5,20.5C 140.643,18.7586 145.643,16.7586 150.5,14.5 Z"/></g>
<g><path style="opacity:1" fill="#31679e" d="M 53.5,27.5 C 55.5,27.5 57.5,27.5 59.5,27.5C 59.6665,36.8393 59.4998,46.1726 59,55.5C 58.5,56 58,56.5 57.5,57C 48.602,58.6091 39.602,58.9424 30.5,58C 29.6667,57.1667 28.8333,56.3333 28,55.5C 27.502,52.5184 27.3354,49.5184 27.5,46.5C 29.5,46.5 31.5,46.5 33.5,46.5C 33.5,48.5 33.5,50.5 33.5,52.5C 40.1667,52.5 46.8333,52.5 53.5,52.5C 53.5,44.1667 53.5,35.8333 53.5,27.5 Z"/></g>
<g><path style="opacity:1" fill="#36679c" d="M 121.5,27.5 C 117.868,28.9836 114.534,30.9836 111.5,33.5C 106.833,33.5 102.167,33.5 97.5,33.5C 97.5,35.5 97.5,37.5 97.5,39.5C 105.019,39.175 112.352,39.5084 119.5,40.5C 111.493,40.3336 103.493,40.5003 95.5,41C 94.0577,41.3768 93.0577,42.2101 92.5,43.5C 91.3516,39.0189 91.1849,34.3522 92,29.5C 92.5,29 93,28.5 93.5,28C 102.827,27.5002 112.161,27.3335 121.5,27.5 Z"/></g>
<g><path style="opacity:1" fill="#194066" d="M 121.5,27.5 C 122.461,29.2646 122.795,31.2646 122.5,33.5C 118.833,33.5 115.167,33.5 111.5,33.5C 114.534,30.9836 117.868,28.9836 121.5,27.5 Z"/></g>
<g><path style="opacity:1" fill="#1c4064" d="M 119.5,40.5 C 120.458,40.9528 121.292,41.6195 122,42.5C 122.802,47.419 122.635,52.2523 121.5,57C 111.605,58.4495 101.605,58.9495 91.5,58.5C 91.5,56.5 91.5,54.5 91.5,52.5C 99.8333,52.5 108.167,52.5 116.5,52.5C 116.5,50.5 116.5,48.5 116.5,46.5C 109.159,46.6663 101.826,46.4997 94.5,46C 93.6195,45.2917 92.9528,44.4584 92.5,43.5C 93.0577,42.2101 94.0577,41.3768 95.5,41C 103.493,40.5003 111.493,40.3336 119.5,40.5 Z"/></g>
<g><path style="opacity:1" fill="#d1dbe1" d="M 27.5,83.5 C 35.6571,81.4857 38.3238,84.319 35.5,92C 34.1279,92.4017 32.7946,92.9017 31.5,93.5C 30.2638,92.7542 28.9305,92.4208 27.5,92.5C 27.5,89.5 27.5,86.5 27.5,83.5 Z"/></g>
<g><path style="opacity:1" fill="#d3dce2" d="M 77.5,83.5 C 80.1667,83.5 82.8333,83.5 85.5,83.5C 85.8174,86.5719 85.4841,89.5719 84.5,92.5C 83.6858,90.2338 83.1858,87.9005 83,85.5C 82.1382,94.7665 80.9715,94.7665 79.5,85.5C 78.8333,87.8333 78.1667,90.1667 77.5,92.5C 76.2588,89.463 76.2588,86.463 77.5,83.5 Z"/></g>
<g><path style="opacity:1" fill="#e8eef0" d="M 72.5,88.5 C 70.1667,88.5 67.8333,88.5 65.5,88.5C 65.5,89.8333 65.5,91.1667 65.5,92.5C 64.5233,89.7131 64.19,86.7131 64.5,83.5C 67.5,83.5 70.5,83.5 73.5,83.5C 73.7845,85.4147 73.4511,87.0813 72.5,88.5 Z"/></g>
<g><path style="opacity:1" fill="#e4eaed" d="M 91.5,85.5 C 90.9569,85.56 90.6236,85.8933 90.5,86.5C 92.7427,87.4742 95.076,87.8076 97.5,87.5C 95.3021,88.1653 92.9688,88.8319 90.5,89.5C 90.6236,90.1067 90.9569,90.44 91.5,90.5C 93.924,90.1924 96.2573,90.5258 98.5,91.5C 95.5719,92.4841 92.5719,92.8174 89.5,92.5C 89.5,89.5 89.5,86.5 89.5,83.5C 92.5719,83.1826 95.5719,83.5159 98.5,84.5C 96.2573,85.4742 93.924,85.8076 91.5,85.5 Z"/></g>
<g><path style="opacity:1" fill="#dce5e9" d="M 101.5,83.5 C 104.056,84.5434 106.223,86.2101 108,88.5C 108.202,86.7444 108.702,85.0777 109.5,83.5C 111.724,92.9491 109.891,94.2824 104,87.5C 103.798,89.2556 103.298,90.9223 102.5,92.5C 101.516,89.5719 101.183,86.5719 101.5,83.5 Z"/></g>
<g><path style="opacity:1" fill="#d9e2e6" d="M 39.5,83.5 C 41.3435,85.2789 42.0102,87.6122 41.5,90.5C 43.1667,90.5 44.8333,90.5 46.5,90.5C 46.1924,88.076 46.5258,85.7427 47.5,83.5C 50.5388,91.4637 47.8721,94.4637 39.5,92.5C 39.5,89.5 39.5,86.5 39.5,83.5 Z"/></g>
<g><path style="opacity:1" fill="#c6d2d9" d="M 55.5,83.5 C 56.7647,84.5145 57.4313,86.0145 57.5,88C 57.1667,89.5 56.8333,91 56.5,92.5C 55.5159,89.5719 55.1826,86.5719 55.5,83.5 Z"/></g>
<g><path style="opacity:1" fill="#dde6e9" d="M 113.5,83.5 C 116.572,83.1826 119.572,83.5159 122.5,84.5C 121.675,85.3857 120.675,85.719 119.5,85.5C 118.833,94.8333 118.167,94.8333 117.5,85.5C 115.517,85.8432 114.183,85.1765 113.5,83.5 Z"/></g>
<g><path style="opacity:1" fill="#224366" d="M 29.5,85.5 C 31.1667,85.5 32.8333,85.5 34.5,85.5C 34.5,87.1667 34.5,88.8333 34.5,90.5C 32.8333,90.5 31.1667,90.5 29.5,90.5C 29.5,88.8333 29.5,87.1667 29.5,85.5 Z"/></g>
<g><path style="opacity:1" fill="#58718b" d="M 66.5,85.5 C 68.288,85.2148 69.9547,85.5481 71.5,86.5C 70.6667,86.8333 69.8333,87.1667 69,87.5C 67.6244,87.3158 66.7911,86.6491 66.5,85.5 Z"/></g>
<g><path style="opacity:1" fill="#7c93a7" d="M 91.5,85.5 C 93.5,86.1667 95.5,86.8333 97.5,87.5C 95.076,87.8076 92.7427,87.4742 90.5,86.5C 90.6236,85.8933 90.9569,85.56 91.5,85.5 Z"/></g>
<g><path style="opacity:1" fill="#667f95" d="M 97.5,87.5 C 98.0431,87.56 98.3764,87.8933 98.5,88.5C 96.0312,89.1681 93.6979,89.8347 91.5,90.5C 90.9569,90.44 90.6236,90.1067 90.5,89.5C 92.9688,88.8319 95.3021,88.1653 97.5,87.5 Z"/></g>
<g><path style="opacity:1" fill="#879db1" d="M 72.5,88.5 C 70.7354,89.4614 68.7354,89.7947 66.5,89.5C 66.7373,90.791 66.404,91.791 65.5,92.5C 65.5,91.1667 65.5,89.8333 65.5,88.5C 67.8333,88.5 70.1667,88.5 72.5,88.5 Z"/></g>
<g><path style="opacity:1" fill="#d7e1e5" d="M 14.5,83.5 C 17.5719,83.1826 20.5719,83.5159 23.5,84.5C 14.2335,85.9715 14.2335,87.1382 23.5,88C 14.2335,88.8618 14.2335,90.0285 23.5,91.5C 20.5719,92.4841 17.5719,92.8174 14.5,92.5C 14.5,89.5 14.5,86.5 14.5,83.5 Z"/></g>
<g><path style="opacity:1" fill="#d6dfe4" d="M 126.5,83.5 C 129.572,83.1826 132.572,83.5159 135.5,84.5C 133.234,85.3142 130.9,85.8142 128.5,86C 130.5,86.3333 132.5,86.6667 134.5,87C 135.833,88.6667 135.833,90.3333 134.5,92C 131.773,92.8184 129.106,92.6517 126.5,91.5C 135.744,89.8732 135.744,88.8732 126.5,88.5C 126.5,86.8333 126.5,85.1667 126.5,83.5 Z"/></g>
</svg>
