<?xml version="1.0" standalone="no"?>
<!DOCTYPE svg PUBLIC "-//W3C//DTD SVG 20010904//EN"
 "http://www.w3.org/TR/2001/REC-SVG-20010904/DTD/svg10.dtd">
<svg version="1.0" xmlns="http://www.w3.org/2000/svg"
 width="151.000000pt" height="102.000000pt" viewBox="0 0 151.000000 102.000000"
 preserveAspectRatio="xMidYMid meet">

<g transform="translate(0.000000,102.000000) scale(0.100000,-0.100000)"
fill="#000000" stroke="none">
<path d="M0 510 l0 -510 755 0 755 0 0 510 0 510 -755 0 -755 0 0 -510z m715
336 c14 -21 16 -60 13 -271 -3 -231 -4 -248 -22 -261 -16 -11 -70 -14 -272
-14 -250 0 -253 0 -268 22 -13 19 -16 61 -16 263 0 202 3 244 16 263 15 22 18
22 274 22 l260 0 15 -24z m629 8 c14 -13 16 -52 16 -266 0 -220 -2 -254 -17
-270 -15 -17 -37 -18 -269 -18 -216 0 -255 2 -268 16 -14 13 -16 52 -16 273 0
186 3 260 12 269 9 9 83 12 269 12 221 0 260 -2 273 -16z m-1104 -684 c0 -5
-17 -11 -37 -12 l-38 -1 38 -4 c47 -5 49 -23 2 -23 -19 0 -35 -4 -35 -10 0 -5
16 -10 35 -10 19 0 35 -4 35 -10 0 -5 -20 -10 -45 -10 l-45 0 0 45 0 45 45 0
c25 0 45 -4 45 -10z m128 -33 c3 -32 0 -38 -21 -46 -52 -20 -86 11 -73 65 6
22 11 25 49 22 41 -3 42 -4 45 -41z m52 8 c0 -31 3 -35 25 -35 22 0 25 4 25
35 0 19 5 35 11 35 6 0 9 -17 7 -42 -3 -43 -3 -43 -45 -46 l-43 -3 0 45 c0 25
5 46 10 46 6 0 10 -16 10 -35z m160 -10 c0 -25 -4 -45 -10 -45 -5 0 -10 20
-10 45 0 25 5 45 10 45 6 0 10 -20 10 -45z m158 18 c3 -20 -1 -23 -32 -23 -29
0 -36 -4 -36 -20 0 -11 -4 -20 -10 -20 -5 0 -10 21 -10 46 l0 45 43 -3 c35 -2
43 -7 45 -25z m122 -18 c0 -54 -19 -61 -22 -7 l-1 37 -4 -37 c-5 -48 -23 -50
-23 -3 0 19 -4 35 -10 35 -5 0 -10 -16 -10 -35 0 -19 -4 -35 -10 -35 -11 0
-14 73 -3 83 3 4 24 7 45 7 l38 0 0 -45z m130 35 c0 -5 -17 -11 -37 -11 -34
-2 -35 -2 -8 -6 46 -7 55 -23 12 -23 -20 0 -37 -4 -37 -10 0 -5 16 -10 35 -10
19 0 35 -5 35 -11 0 -6 -19 -9 -47 -7 -44 3 -48 5 -51 31 -6 48 3 57 53 57 25
0 45 -4 45 -10z m72 -17 l28 -27 0 27 c0 15 5 27 10 27 6 0 10 -20 10 -45 0
-25 -3 -45 -7 -45 -4 0 -20 12 -35 27 l-28 27 0 -27 c0 -15 -4 -27 -10 -27 -5
0 -10 20 -10 45 0 25 3 45 7 45 4 0 20 -12 35 -27z m168 17 c0 -5 -7 -10 -15
-10 -10 0 -15 -11 -15 -35 0 -19 -4 -35 -10 -35 -5 0 -10 16 -10 35 0 28 -4
35 -20 35 -11 0 -20 5 -20 10 0 6 20 10 45 10 25 0 45 -4 45 -10z m130 0 c0
-5 -17 -10 -37 -11 -39 -1 -38 -3 10 -13 22 -5 28 -12 25 -29 -2 -18 -10 -23
-45 -25 -26 -2 -43 1 -43 7 0 6 16 11 36 11 21 0 33 4 29 10 -3 6 -19 10 -36
10 -24 0 -29 4 -29 25 0 23 4 25 45 25 25 0 45 -4 45 -10z"/>
<path d="M540 615 l0 -125 -100 0 -100 0 0 30 c0 27 -3 30 -31 30 l-32 0 6
-47 c7 -67 20 -73 157 -73 160 0 154 -7 158 169 l4 141 -31 0 -31 0 0 -125z"/>
<path d="M935 724 c-12 -12 -15 -32 -13 -82 4 -85 15 -92 151 -92 l97 0 0 -30
0 -30 -125 0 -125 0 0 -30 0 -30 139 0 c171 0 173 2 169 98 -4 85 -15 92 -150
92 l-98 0 0 30 0 30 125 0 125 0 0 30 0 30 -139 0 c-115 0 -142 -3 -156 -16z"/>
<path d="M300 135 c0 -20 5 -25 25 -25 20 0 25 5 25 25 0 20 -5 25 -25 25 -20
0 -25 -5 -25 -25z"/>
<path d="M683 153 c9 -2 23 -2 30 0 6 3 -1 5 -18 5 -16 0 -22 -2 -12 -5z"/>
</g>
</svg>
